{
	"asset":{
		"generator":"Khronos glTF Blender I/O v4.0.44",
		"version":"2.0"
	},
	"extensionsUsed":[
		"KHR_materials_specular",
		"KHR_materials_ior"
	],
	"scene":0,
	"scenes":[
		{
			"name":"Scene",
			"nodes":[
				0
			]
		}
	],
	"nodes":[
		{
			"mesh":0,
			"name":"drone_costum",
			"scale":[
				1,
				1,
				1.9873021841049194
			],
			"translation":[
				0,
				0.6480095386505127,
				0
			]
		}
	],
	"materials":[
		{
			"doubleSided":true,
			"name":"col_master",
			"pbrMetallicRoughness":{
				"baseColorFactor":[
					1,
					0.9082257747650146,
					0,
					0
				],
				"metallicFactor":0,
				"roughnessFactor":0.690034806728363
			}
		},
		{
			"doubleSided":true,
			"extensions":{
				"KHR_materials_specular":{
					"specularFactor":0.4000000059604645
				},
				"KHR_materials_ior":{
					"ior":1.4500000476837158
				}
			},
			"name":"col_1",
			"pbrMetallicRoughness":{
				"baseColorFactor":[
					0.018848644569516182,
					0.018848644569516182,
					0.018848644569516182,
					0
				],
				"metallicFactor":0,
				"roughnessFactor":0.690034806728363
			}
		},
		{
			"doubleSided":true,
			"extensions":{
				"KHR_materials_specular":{
					"specularFactor":0.4000000059604645
				},
				"KHR_materials_ior":{
					"ior":1.4500000476837158
				}
			},
			"name":"col_2",
			"pbrMetallicRoughness":{
				"baseColorFactor":[
					0.800000011920929,
					0.800000011920929,
					0.800000011920929,
					0
				],
				"metallicFactor":0,
				"roughnessFactor":0.690034806728363
			}
		},
		{
			"doubleSided":true,
			"name":"col_3",
			"pbrMetallicRoughness":{
				"baseColorFactor":[
					1,
					0,
					0,
					0
				],
				"metallicFactor":0,
				"roughnessFactor":0.690034806728363
			}
		},
		{
			"doubleSided":true,
			"name":"uv__tex_blury",
			"pbrMetallicRoughness":{
				"baseColorFactor":[
					1,
					1,
					1,
					0
				],
				"metallicFactor":0,
				"roughnessFactor":0.690034806728363
			}
		},
		{
			"doubleSided":true,
			"extensions":{
				"KHR_materials_specular":{
					"specularFactor":0.4000000059604645
				},
				"KHR_materials_ior":{
					"ior":1.4500000476837158
				}
			},
			"name":"col_4",
			"pbrMetallicRoughness":{
				"baseColorFactor":[
					0.010021204128861427,
					0.010021204128861427,
					0.010021204128861427,
					0.800000011920929
				],
				"metallicFactor":0,
				"roughnessFactor":0.690034806728363
			}
		},
		{
			"doubleSided":true,
			"name":"uv_text_camera",
			"pbrMetallicRoughness":{
				"baseColorFactor":[
					1,
					1,
					1,
					0
				],
				"metallicFactor":0,
				"roughnessFactor":0.690034806728363
			}
		}
	],
	"meshes":[
		{
			"name":"Cube.001",
			"primitives":[
				{
					"attributes":{
						"POSITION":0,
						"NORMAL":1,
						"TEXCOORD_0":2
					},
					"indices":3,
					"material":0
				},
				{
					"attributes":{
						"POSITION":4,
						"NORMAL":5,
						"TEXCOORD_0":6
					},
					"indices":7,
					"material":1
				},
				{
					"attributes":{
						"POSITION":8,
						"NORMAL":9,
						"TEXCOORD_0":10
					},
					"indices":11,
					"material":2
				},
				{
					"attributes":{
						"POSITION":12,
						"NORMAL":13,
						"TEXCOORD_0":14
					},
					"indices":15,
					"material":3
				},
				{
					"attributes":{
						"POSITION":16,
						"NORMAL":17,
						"TEXCOORD_0":18
					},
					"indices":19,
					"material":4
				},
				{
					"attributes":{
						"POSITION":20,
						"NORMAL":21,
						"TEXCOORD_0":22
					},
					"indices":23,
					"material":5
				},
				{
					"attributes":{
						"POSITION":24,
						"NORMAL":25,
						"TEXCOORD_0":26
					},
					"indices":27,
					"material":6
				}
			]
		}
	],
	"accessors":[
		{
			"bufferView":0,
			"componentType":5126,
			"count":2928,
			"max":[
				6.202479362487793,
				1.537471055984497,
				2.078627586364746
			],
			"min":[
				-6.202479362487793,
				-1.4911965131759644,
				-2.3300576210021973
			],
			"type":"VEC3"
		},
		{
			"bufferView":1,
			"componentType":5126,
			"count":2928,
			"type":"VEC3"
		},
		{
			"bufferView":2,
			"componentType":5126,
			"count":2928,
			"type":"VEC2"
		},
		{
			"bufferView":3,
			"componentType":5123,
			"count":5814,
			"type":"SCALAR"
		},
		{
			"bufferView":4,
			"componentType":5126,
			"count":2452,
			"max":[
				6.202479362487793,
				1.537471055984497,
				2.078627586364746
			],
			"min":[
				-6.202479362487793,
				-1.0377326011657715,
				-2.3300576210021973
			],
			"type":"VEC3"
		},
		{
			"bufferView":5,
			"componentType":5126,
			"count":2452,
			"type":"VEC3"
		},
		{
			"bufferView":6,
			"componentType":5126,
			"count":2452,
			"type":"VEC2"
		},
		{
			"bufferView":7,
			"componentType":5123,
			"count":5664,
			"type":"SCALAR"
		},
		{
			"bufferView":8,
			"componentType":5126,
			"count":8,
			"max":[
				1.4553648233413696,
				1.2975797653198242,
				-0.01155068725347519
			],
			"min":[
				-1.4553648233413696,
				1.2975797653198242,
				-0.1106729656457901
			],
			"type":"VEC3"
		},
		{
			"bufferView":9,
			"componentType":5126,
			"count":8,
			"type":"VEC3"
		},
		{
			"bufferView":10,
			"componentType":5126,
			"count":8,
			"type":"VEC2"
		},
		{
			"bufferView":11,
			"componentType":5123,
			"count":12,
			"type":"SCALAR"
		},
		{
			"bufferView":12,
			"componentType":5126,
			"count":102,
			"max":[
				1.564584493637085,
				1.0142245292663574,
				0.39596784114837646
			],
			"min":[
				-1.564584493637085,
				-0.2818778455257416,
				-1.4235349893569946
			],
			"type":"VEC3"
		},
		{
			"bufferView":13,
			"componentType":5126,
			"count":102,
			"type":"VEC3"
		},
		{
			"bufferView":14,
			"componentType":5126,
			"count":102,
			"type":"VEC2"
		},
		{
			"bufferView":15,
			"componentType":5123,
			"count":186,
			"type":"SCALAR"
		},
		{
			"bufferView":16,
			"componentType":5126,
			"count":7976,
			"max":[
				1.7296274900436401,
				1.8631656169891357,
				0.7966761589050293
			],
			"min":[
				-1.7296274900436401,
				-1.4329543113708496,
				-1.051997184753418
			],
			"type":"VEC3"
		},
		{
			"bufferView":17,
			"componentType":5126,
			"count":7976,
			"type":"VEC3"
		},
		{
			"bufferView":18,
			"componentType":5126,
			"count":7976,
			"type":"VEC2"
		},
		{
			"bufferView":19,
			"componentType":5123,
			"count":13224,
			"type":"SCALAR"
		},
		{
			"bufferView":20,
			"componentType":5126,
			"count":58,
			"max":[
				0.7430455684661865,
				0.9809458255767822,
				1.4514272212982178
			],
			"min":[
				-0.7430455684661865,
				0.015152111649513245,
				-0.4035481810569763
			],
			"type":"VEC3"
		},
		{
			"bufferView":21,
			"componentType":5126,
			"count":58,
			"type":"VEC3"
		},
		{
			"bufferView":22,
			"componentType":5126,
			"count":58,
			"type":"VEC2"
		},
		{
			"bufferView":23,
			"componentType":5123,
			"count":126,
			"type":"SCALAR"
		},
		{
			"bufferView":24,
			"componentType":5126,
			"count":8,
			"max":[
				0.1757117658853531,
				-0.9746361970901489,
				0.4184191823005676
			],
			"min":[
				-0.1757117211818695,
				-1.3260596990585327,
				0.4184191823005676
			],
			"type":"VEC3"
		},
		{
			"bufferView":25,
			"componentType":5126,
			"count":8,
			"type":"VEC3"
		},
		{
			"bufferView":26,
			"componentType":5126,
			"count":8,
			"type":"VEC2"
		},
		{
			"bufferView":27,
			"componentType":5123,
			"count":18,
			"type":"SCALAR"
		}
	],
	"bufferViews":[
		{
			"buffer":0,
			"byteLength":35136,
			"byteOffset":0,
			"target":34962
		},
		{
			"buffer":0,
			"byteLength":35136,
			"byteOffset":35136,
			"target":34962
		},
		{
			"buffer":0,
			"byteLength":23424,
			"byteOffset":70272,
			"target":34962
		},
		{
			"buffer":0,
			"byteLength":11628,
			"byteOffset":93696,
			"target":34963
		},
		{
			"buffer":0,
			"byteLength":29424,
			"byteOffset":105324,
			"target":34962
		},
		{
			"buffer":0,
			"byteLength":29424,
			"byteOffset":134748,
			"target":34962
		},
		{
			"buffer":0,
			"byteLength":19616,
			"byteOffset":164172,
			"target":34962
		},
		{
			"buffer":0,
			"byteLength":11328,
			"byteOffset":183788,
			"target":34963
		},
		{
			"buffer":0,
			"byteLength":96,
			"byteOffset":195116,
			"target":34962
		},
		{
			"buffer":0,
			"byteLength":96,
			"byteOffset":195212,
			"target":34962
		},
		{
			"buffer":0,
			"byteLength":64,
			"byteOffset":195308,
			"target":34962
		},
		{
			"buffer":0,
			"byteLength":24,
			"byteOffset":195372,
			"target":34963
		},
		{
			"buffer":0,
			"byteLength":1224,
			"byteOffset":195396,
			"target":34962
		},
		{
			"buffer":0,
			"byteLength":1224,
			"byteOffset":196620,
			"target":34962
		},
		{
			"buffer":0,
			"byteLength":816,
			"byteOffset":197844,
			"target":34962
		},
		{
			"buffer":0,
			"byteLength":372,
			"byteOffset":198660,
			"target":34963
		},
		{
			"buffer":0,
			"byteLength":95712,
			"byteOffset":199032,
			"target":34962
		},
		{
			"buffer":0,
			"byteLength":95712,
			"byteOffset":294744,
			"target":34962
		},
		{
			"buffer":0,
			"byteLength":63808,
			"byteOffset":390456,
			"target":34962
		},
		{
			"buffer":0,
			"byteLength":26448,
			"byteOffset":454264,
			"target":34963
		},
		{
			"buffer":0,
			"byteLength":696,
			"byteOffset":480712,
			"target":34962
		},
		{
			"buffer":0,
			"byteLength":696,
			"byteOffset":481408,
			"target":34962
		},
		{
			"buffer":0,
			"byteLength":464,
			"byteOffset":482104,
			"target":34962
		},
		{
			"buffer":0,
			"byteLength":252,
			"byteOffset":482568,
			"target":34963
		},
		{
			"buffer":0,
			"byteLength":96,
			"byteOffset":482820,
			"target":34962
		},
		{
			"buffer":0,
			"byteLength":96,
			"byteOffset":482916,
			"target":34962
		},
		{
			"buffer":0,
			"byteLength":64,
			"byteOffset":483012,
			"target":34962
		},
		{
			"buffer":0,
			"byteLength":36,
			"byteOffset":483076,
			"target":34963
		}
	],
	"buffers":[
		{
			"byteLength":483112,
			"uri":"drone.bin"
		}
	]
}
