{
	"asset":{
		"generator":"Khronos glTF Blender I/O v3.6.27",
		"version":"2.0"
	},
	"extensionsUsed":[
		"KHR_materials_specular",
		"KHR_materials_ior"
	],
	"scene":0,
	"scenes":[
		{
			"name":"Scene",
			"nodes":[
				2
			]
		}
	],
	"nodes":[
		{
			"mesh":0,
			"name":"silencer001"
		},
		{
			"mesh":1,
			"name":"weapon002"
		},
		{
			"children":[
				0,
				1
			],
			"name":"m4a1_s_root",
			"rotation":[
				0.7071068286895752,
				0,
				0,
				0.7071068286895752
			],
			"scale":[
				0.009999999776482582,
				0.009999999776482582,
				0.009999999776482582
			]
		}
	],
	"materials":[
		{
			"doubleSided":true,
			"extensions":{
				"KHR_materials_specular":{
					"specularColorFactor":[
						2.371357614441398,
						2.371357614441398,
						2.371357614441398
					]
				},
				"KHR_materials_ior":{
					"ior":1.4500000476837158
				}
			},
			"name":"silencer001Mat",
			"pbrMetallicRoughness":{
				"baseColorFactor":[
					0.800000011920929,
					0.800000011920929,
					0.800000011920929,
					1
				],
				"roughnessFactor":0.5527864098548889
			}
		},
		{
			"doubleSided":true,
			"extensions":{
				"KHR_materials_specular":{
					"specularColorFactor":[
						2.371357614441398,
						2.371357614441398,
						2.371357614441398
					]
				},
				"KHR_materials_ior":{
					"ior":1.4500000476837158
				}
			},
			"name":"weapon002Mat",
			"pbrMetallicRoughness":{
				"baseColorFactor":[
					0.800000011920929,
					0.800000011920929,
					0.800000011920929,
					1
				],
				"roughnessFactor":0.5527864098548889
			}
		}
	],
	"meshes":[
		{
			"name":"Mesh",
			"primitives":[
				{
					"attributes":{
						"POSITION":0,
						"NORMAL":1,
						"TEXCOORD_0":2
					},
					"indices":3,
					"material":0
				}
			]
		},
		{
			"name":"Mesh.001",
			"primitives":[
				{
					"attributes":{
						"POSITION":4,
						"NORMAL":5,
						"TEXCOORD_0":6
					},
					"indices":7,
					"material":1
				}
			]
		}
	],
	"accessors":[
		{
			"bufferView":0,
			"componentType":5126,
			"count":465,
			"max":[
				-2.1812000274658203,
				40.96310043334961,
				2.3840999603271484
			],
			"min":[
				-4.206399917602539,
				31.542499542236328,
				0.3813999891281128
			],
			"type":"VEC3"
		},
		{
			"bufferView":1,
			"componentType":5126,
			"count":465,
			"type":"VEC3"
		},
		{
			"bufferView":2,
			"componentType":5126,
			"count":465,
			"type":"VEC2"
		},
		{
			"bufferView":3,
			"componentType":5123,
			"count":1464,
			"type":"SCALAR"
		},
		{
			"bufferView":4,
			"componentType":5126,
			"count":25182,
			"max":[
				-1.7553999423980713,
				32.6593017578125,
				9.769800186157227
			],
			"min":[
				-5.339799880981445,
				-6.497499942779541,
				-1.936400055885315
			],
			"type":"VEC3"
		},
		{
			"bufferView":5,
			"componentType":5126,
			"count":25182,
			"type":"VEC3"
		},
		{
			"bufferView":6,
			"componentType":5126,
			"count":25182,
			"type":"VEC2"
		},
		{
			"bufferView":7,
			"componentType":5123,
			"count":69630,
			"type":"SCALAR"
		}
	],
	"bufferViews":[
		{
			"buffer":0,
			"byteLength":5580,
			"byteOffset":0,
			"target":34962
		},
		{
			"buffer":0,
			"byteLength":5580,
			"byteOffset":5580,
			"target":34962
		},
		{
			"buffer":0,
			"byteLength":3720,
			"byteOffset":11160,
			"target":34962
		},
		{
			"buffer":0,
			"byteLength":2928,
			"byteOffset":14880,
			"target":34963
		},
		{
			"buffer":0,
			"byteLength":302184,
			"byteOffset":17808,
			"target":34962
		},
		{
			"buffer":0,
			"byteLength":302184,
			"byteOffset":319992,
			"target":34962
		},
		{
			"buffer":0,
			"byteLength":201456,
			"byteOffset":622176,
			"target":34962
		},
		{
			"buffer":0,
			"byteLength":139260,
			"byteOffset":823632,
			"target":34963
		}
	],
	"buffers":[
		{
			"byteLength":962892,
			"uri":"data:application/octet-stream;base64,"
		}
	]
}
