{
	"asset":{
		"generator":"Khronos glTF Blender I/O v4.0.44",
		"version":"2.0"
	},
	"extensionsUsed":[
		"KHR_materials_specular",
		"KHR_materials_ior"
	],
	"scene":0,
	"scenes":[
		{
			"name":"Scene",
			"nodes":[
				0,
				3
			]
		}
	],
	"nodes":[
		{
			"mesh":0,
			"name":"gunbody",
			"rotation":[
				0.7071068286895752,
				0,
				0,
				0.7071068286895752
			],
			"translation":[
				-0.011252641677856445,
				7.842573642730713,
				13.218688011169434
			]
		},
		{
			"name":"slidetrigger",
			"rotation":[
				-0.500691831111908,
				-0.49930718541145325,
				0.5006919503211975,
				0.499307245016098
			],
			"translation":[
				4.713678265488852e-07,
				-10.783638954162598,
				-7.817920207977295
			]
		},
		{
			"mesh":1,
			"name":"slidetrigger",
			"skin":0
		},
		{
			"children":[
				2,
				1
			],
			"name":"Armature",
			"rotation":[
				0.7071068286895752,
				0,
				0,
				0.7071068286895752
			]
		}
	],
	"materials":[
		{
			"doubleSided":true,
			"extensions":{
				"KHR_materials_specular":{
					"specularFactor":0
				},
				"KHR_materials_ior":{
					"ior":1.4500000476837158
				}
			},
			"name":"01 - Default",
			"pbrMetallicRoughness":{
				"baseColorTexture":{
					"index":0
				},
				"roughnessFactor":0.858578622341156
			}
		}
	],
	"meshes":[
		{
			"name":"Mesh.001",
			"primitives":[
				{
					"attributes":{
						"POSITION":0,
						"NORMAL":1,
						"TEXCOORD_0":2
					},
					"indices":3,
					"material":0
				}
			]
		},
		{
			"name":"Mesh",
			"primitives":[
				{
					"attributes":{
						"POSITION":4,
						"NORMAL":5,
						"TEXCOORD_0":6,
						"JOINTS_0":7,
						"WEIGHTS_0":8
					},
					"indices":9,
					"material":0
				}
			]
		}
	],
	"textures":[
		{
			"sampler":0,
			"source":0
		}
	],
	"images":[
		{
			"mimeType":"image/jpeg",
			"name":"257",
			"uri":"257.jpg"
		}
	],
	"skins":[
		{
			"inverseBindMatrices":10,
			"joints":[
				1
			],
			"name":"Armature"
		}
	],
	"accessors":[
		{
			"bufferView":0,
			"componentType":5126,
			"count":2097,
			"max":[
				1.6716935634613037,
				3.286876678466797,
				18.789220809936523
			],
			"min":[
				-1.6491844654083252,
				-29.7242488861084,
				-1.5646696090698242
			],
			"type":"VEC3"
		},
		{
			"bufferView":1,
			"componentType":5126,
			"count":2097,
			"type":"VEC3"
		},
		{
			"bufferView":2,
			"componentType":5126,
			"count":2097,
			"type":"VEC2"
		},
		{
			"bufferView":3,
			"componentType":5123,
			"count":6732,
			"type":"SCALAR"
		},
		{
			"bufferView":4,
			"componentType":5126,
			"count":821,
			"max":[
				1.3688759803771973,
				10.393828392028809,
				16.33855438232422
			],
			"min":[
				-1.3688817024230957,
				6.0748372077941895,
				-12.371015548706055
			],
			"type":"VEC3"
		},
		{
			"bufferView":5,
			"componentType":5126,
			"count":821,
			"type":"VEC3"
		},
		{
			"bufferView":6,
			"componentType":5126,
			"count":821,
			"type":"VEC2"
		},
		{
			"bufferView":7,
			"componentType":5121,
			"count":821,
			"type":"VEC4"
		},
		{
			"bufferView":8,
			"componentType":5126,
			"count":821,
			"type":"VEC4"
		},
		{
			"bufferView":9,
			"componentType":5123,
			"count":2484,
			"type":"SCALAR"
		},
		{
			"bufferView":10,
			"componentType":5126,
			"count":1,
			"type":"MAT4"
		}
	],
	"bufferViews":[
		{
			"buffer":0,
			"byteLength":25164,
			"byteOffset":0,
			"target":34962
		},
		{
			"buffer":0,
			"byteLength":25164,
			"byteOffset":25164,
			"target":34962
		},
		{
			"buffer":0,
			"byteLength":16776,
			"byteOffset":50328,
			"target":34962
		},
		{
			"buffer":0,
			"byteLength":13464,
			"byteOffset":67104,
			"target":34963
		},
		{
			"buffer":0,
			"byteLength":9852,
			"byteOffset":80568,
			"target":34962
		},
		{
			"buffer":0,
			"byteLength":9852,
			"byteOffset":90420,
			"target":34962
		},
		{
			"buffer":0,
			"byteLength":6568,
			"byteOffset":100272,
			"target":34962
		},
		{
			"buffer":0,
			"byteLength":3284,
			"byteOffset":106840,
			"target":34962
		},
		{
			"buffer":0,
			"byteLength":13136,
			"byteOffset":110124,
			"target":34962
		},
		{
			"buffer":0,
			"byteLength":4968,
			"byteOffset":123260,
			"target":34963
		},
		{
			"buffer":0,
			"byteLength":64,
			"byteOffset":128228
		}
	],
	"samplers":[
		{
			"magFilter":9729,
			"minFilter":9987
		}
	],
	"buffers":[
		{
			"byteLength":128292,
			"uri":"gun.bin"
		}
	]
}
