{
	"asset":{
		"generator":"Khronos glTF Blender I/O v4.0.44",
		"version":"2.0"
	},
	"scene":0,
	"scenes":[
		{
			"name":"Scene",
			"nodes":[
				0
			]
		}
	],
	"nodes":[
		{
			"mesh":0,
			"name":"Dientes.002",
			"rotation":[
				0.67494136095047,
				0,
				-0.11022584140300751,
				0.7295920252799988
			],
			"translation":[
				2.9010698199272156e-06,
				1.4928829669952393,
				1.278137445449829
			]
		}
	],
	"materials":[
		{
			"doubleSided":true,
			"name":"Material.002",
			"pbrMetallicRoughness":{
				"baseColorFactor":[
					0.7873988151550293,
					0.750218391418457,
					0.43884238600730896,
					0
				],
				"metallicFactor":0,
				"roughnessFactor":0.690034806728363
			}
		}
	],
	"meshes":[
		{
			"name":"Plano.006",
			"primitives":[
				{
					"attributes":{
						"POSITION":0,
						"NORMAL":1
					},
					"indices":2,
					"material":0
				}
			]
		}
	],
	"accessors":[
		{
			"bufferView":0,
			"componentType":5126,
			"count":4869,
			"max":[
				2.4984192848205566,
				0.2541871666908264,
				1.4749164581298828
			],
			"min":[
				-2.3710522651672363,
				-5.7590813636779785,
				-6.030824661254883
			],
			"type":"VEC3"
		},
		{
			"bufferView":1,
			"componentType":5126,
			"count":4869,
			"type":"VEC3"
		},
		{
			"bufferView":2,
			"componentType":5123,
			"count":29220,
			"type":"SCALAR"
		}
	],
	"bufferViews":[
		{
			"buffer":0,
			"byteLength":58428,
			"byteOffset":0,
			"target":34962
		},
		{
			"buffer":0,
			"byteLength":58428,
			"byteOffset":58428,
			"target":34962
		},
		{
			"buffer":0,
			"byteLength":58440,
			"byteOffset":116856,
			"target":34963
		}
	],
	"buffers":[
		{
			"byteLength":175296,
			"uri":"skull.bin"
		}
	]
}
