{
	"asset":{
		"generator":"Khronos glTF Blender I/O v4.2.57",
		"version":"2.0"
	},
	"extensionsUsed":[
		"KHR_materials_specular"
	],
	"scene":0,
	"scenes":[
		{
			"name":"Scene",
			"nodes":[
				0,
				1
			]
		}
	],
	"nodes":[
		{
			"mesh":0,
			"name":"Cube"
		},
		{
			"mesh":1,
			"name":"polySurface1",
			"rotation":[
				0.7071068286895752,
				0,
				0,
				0.7071068286895752
			],
			"scale":[
				1.2510524988174438,
				1.2510524988174438,
				1.2510524988174438
			]
		}
	],
	"materials":[
		{
			"doubleSided":true,
			"name":"Material",
			"pbrMetallicRoughness":{
				"baseColorFactor":[
					0.800000011920929,
					0.800000011920929,
					0.800000011920929,
					1
				],
				"metallicFactor":0,
				"roughnessFactor":0.5
			}
		},
		{
			"doubleSided":true,
			"extensions":{
				"KHR_materials_specular":{
					"specularColorFactor":[
						2.0,
						2.0,
						2.0
					]
				}
			},
			"name":"Trank_bark1",
			"pbrMetallicRoughness":{
				"baseColorTexture":{
					"index":0
				},
				"metallicFactor":0.5,
				"roughnessFactor":0.5757359266281128
			}
		},
		{
			"alphaMode":"BLEND",
			"doubleSided":true,
			"extensions":{
				"KHR_materials_specular":{
					"specularTexture":{
						"index":1
					}
				}
			},
			"name":"DB2X2_L02",
			"normalTexture":{
				"index":2
			},
			"pbrMetallicRoughness":{
				"baseColorTexture":{
					"index":3
				},
				"metallicFactor":0,
				"roughnessFactor":0.7191085815429688
			}
		}
	],
	"meshes":[
		{
			"name":"Cube",
			"primitives":[
				{
					"attributes":{
						"POSITION":0,
						"NORMAL":1,
						"TEXCOORD_0":2
					},
					"indices":3,
					"material":0
				}
			]
		},
		{
			"name":"Mesh",
			"primitives":[
				{
					"attributes":{
						"POSITION":4,
						"NORMAL":5,
						"TEXCOORD_0":6
					},
					"indices":7,
					"material":1
				},
				{
					"attributes":{
						"POSITION":8,
						"NORMAL":9,
						"TEXCOORD_0":10
					},
					"indices":11,
					"material":2
				}
			]
		}
	],
	"textures":[
		{
			"sampler":0,
			"source":0
		},
		{
			"sampler":0,
			"source":1
		},
		{
			"sampler":0,
			"source":2
		},
		{
			"sampler":0,
			"source":3
		}
	],
	"images":[
		{
			"mimeType":"image/jpeg",
			"name":"bark_0021",
			"uri":"bark_0021.jpg"
		},
		{
			"mimeType":"image/png",
			"name":"DB2X2_L01_Spec",
			"uri":"DB2X2_L01_Spec.png"
		},
		{
			"mimeType":"image/png",
			"name":"DB2X2_L01_Nor",
			"uri":"DB2X2_L01_Nor.png"
		},
		{
			"mimeType":"image/png",
			"name":"DB2X2_L01",
			"uri":"DB2X2_L01.png"
		}
	],
	"accessors":[
		{
			"bufferView":0,
			"componentType":5126,
			"count":24,
			"max":[
				1,
				1,
				1
			],
			"min":[
				-1,
				-1,
				-1
			],
			"type":"VEC3"
		},
		{
			"bufferView":1,
			"componentType":5126,
			"count":24,
			"type":"VEC3"
		},
		{
			"bufferView":2,
			"componentType":5126,
			"count":24,
			"type":"VEC2"
		},
		{
			"bufferView":3,
			"componentType":5123,
			"count":36,
			"type":"SCALAR"
		},
		{
			"bufferView":4,
			"componentType":5126,
			"count":11629,
			"max":[
				1.3621289730072021,
				1.3919509649276733,
				0
			],
			"min":[
				-1.5695610046386719,
				-1.4089959859848022,
				-3.5887699127197266
			],
			"type":"VEC3"
		},
		{
			"bufferView":5,
			"componentType":5126,
			"count":11629,
			"type":"VEC3"
		},
		{
			"bufferView":6,
			"componentType":5126,
			"count":11629,
			"type":"VEC2"
		},
		{
			"bufferView":7,
			"componentType":5123,
			"count":20262,
			"type":"SCALAR"
		},
		{
			"bufferView":8,
			"componentType":5126,
			"count":13126,
			"max":[
				1.7888920307159424,
				1.7033220529556274,
				-1.4947999715805054
			],
			"min":[
				-1.8449180126190186,
				-1.8419129848480225,
				-3.821959972381592
			],
			"type":"VEC3"
		},
		{
			"bufferView":9,
			"componentType":5126,
			"count":13126,
			"type":"VEC3"
		},
		{
			"bufferView":10,
			"componentType":5126,
			"count":13126,
			"type":"VEC2"
		},
		{
			"bufferView":11,
			"componentType":5123,
			"count":20910,
			"type":"SCALAR"
		}
	],
	"bufferViews":[
		{
			"buffer":0,
			"byteLength":288,
			"byteOffset":0,
			"target":34962
		},
		{
			"buffer":0,
			"byteLength":288,
			"byteOffset":288,
			"target":34962
		},
		{
			"buffer":0,
			"byteLength":192,
			"byteOffset":576,
			"target":34962
		},
		{
			"buffer":0,
			"byteLength":72,
			"byteOffset":768,
			"target":34963
		},
		{
			"buffer":0,
			"byteLength":139548,
			"byteOffset":840,
			"target":34962
		},
		{
			"buffer":0,
			"byteLength":139548,
			"byteOffset":140388,
			"target":34962
		},
		{
			"buffer":0,
			"byteLength":93032,
			"byteOffset":279936,
			"target":34962
		},
		{
			"buffer":0,
			"byteLength":40524,
			"byteOffset":372968,
			"target":34963
		},
		{
			"buffer":0,
			"byteLength":157512,
			"byteOffset":413492,
			"target":34962
		},
		{
			"buffer":0,
			"byteLength":157512,
			"byteOffset":571004,
			"target":34962
		},
		{
			"buffer":0,
			"byteLength":105008,
			"byteOffset":728516,
			"target":34962
		},
		{
			"buffer":0,
			"byteLength":41820,
			"byteOffset":833524,
			"target":34963
		}
	],
	"samplers":[
		{
			"magFilter":9729,
			"minFilter":9987
		}
	],
	"buffers":[
		{
			"byteLength":875344,
			"uri":"tree.bin"
		}
	]
}
